<svg width="84" height="24" viewBox="0 0 84 24" fill="none" xmlns="http://www.w3.org/2000/svg">
<path d="M3.29175 19.7647V11.7647L3.16008 9.29412H3.40148L4.25733 11.7647L7.32963 18.8235H11.3236L14.3959 11.7647L15.2518 9.29412H15.4932L15.3834 11.7647V19.7647H18.6752V4H14.1984L10.8628 11.7647L9.52413 15.4588H9.28274L7.9002 11.7647L4.45484 4H0V19.7647H3.29175ZM26.2613 20C30.0139 20 32.5376 17.6 32.5376 13.8824C32.5376 10.1176 30.0139 7.74118 26.2613 7.74118C22.5087 7.74118 19.985 10.1176 19.985 13.8824C19.985 17.6 22.5087 20 26.2613 20ZM26.2613 16.8706C24.0229 16.8706 23.2549 15.9529 23.2549 13.8824C23.2549 11.8118 24.0229 10.8471 26.2613 10.8471C28.4778 10.8471 29.2678 11.8118 29.2678 13.8824C29.2678 15.9529 28.4778 16.8706 26.2613 16.8706ZM38.7975 20C41.3213 20 42.7697 18.8235 43.1866 16.4941H43.3622V19.7647H46.4345V4H43.1427V11.1059H42.9452C42.5722 9.12941 41.2335 7.74118 38.622 7.74118C35.3522 7.74118 33.4869 10.1176 33.4869 13.8824C33.4869 17.6 35.3742 20 38.7975 20ZM36.8226 13.8824C36.8226 11.7176 37.8101 10.9647 39.9168 10.9647C42.0235 10.9647 43.1427 11.7176 43.1427 13.7647V13.9529C43.1427 16 42.0016 16.7765 39.9168 16.7765C37.8101 16.7765 36.8226 16.0235 36.8226 13.8824ZM54.0135 20C57.5028 20 59.8289 18.2118 59.8289 15.6471V15.3882H56.5372V15.6235C56.5372 16.6353 55.8569 17.1765 53.9038 17.1765C51.7751 17.1765 50.9851 16.4 50.8973 14.5882H59.8509C59.8948 14.1882 59.9387 13.8824 59.9387 13.4588C59.9387 9.76471 57.5467 7.74118 53.9477 7.74118C50.3268 7.74118 47.847 10.1176 47.847 13.8824C47.847 18.0706 50.3487 20 54.0135 20ZM53.8819 10.4941C55.813 10.4941 56.6908 11.1765 56.7786 12.7294H50.9412C51.0948 11.2 51.9287 10.4941 53.8819 10.4941ZM71.8308 20C76.6368 20 79.0507 17.4118 79.0507 13.1765V4H75.759V12.9176C75.759 15.6 74.8373 16.5647 71.8308 16.5647C68.8463 16.5647 67.9026 15.6 67.9026 12.9176V4H64.6109V13.1765C64.6109 17.4118 67.0468 20 71.8308 20ZM84 19.7647V4H80.7083V19.7647H84Z" fill="#121417"/>
</svg>
